<svg width="200" height="30" xmlns="http://www.w3.org/2000/svg" viewBox="0 0 182.84 27.04"><defs><style>.a{fill:#1895d3;}</style></defs><title>logo</title>
<path d="M1.19,13.86a7.53,7.53,0,0,1,.73-3.38A5.32,5.32,0,0,1,4,8.2a6.44,6.44,0,0,1,3.25-.79,5.81,5.81,0,0,1,4.49,1.76A6.8,6.8,0,0,1,13.42,14v.14a6.54,6.54,0,0,1-1.65,4.7,5.83,5.83,0,0,1-4.46,1.74A5.9,5.9,0,0,1,3,18.93a6.29,6.29,0,0,1-1.77-4.4Zm3.94.25a4.7,4.7,0,0,0,.56,2.58,1.84,1.84,0,0,0,1.62.82c1.41,0,2.13-1.08,2.16-3.25v-.4c0-2.27-.73-3.41-2.18-3.41s-2,1-2.14,2.94Z" transform="translate(-1.19 3.17)"/>
<path d="M18.19,20.32V10.38H16.35V7.64h1.84v-1a4.39,4.39,0,0,1,1.28-3.36,5,5,0,0,1,3.59-1.2,8.08,8.08,0,0,1,1.85.25V5.23a3.6,3.6,0,0,0-1-.11c-1.2,0-1.8.52-1.8,1.55v1h2.48v2.74H22.15v9.94Z" transform="translate(-1.19 3.17)"/><path d="M29.05,20.32V10.38H27.21V7.64h1.84v-1a4.36,4.36,0,0,1,1.28-3.36,5,5,0,0,1,3.58-1.2,8.08,8.08,0,0,1,1.85.25V5.23a3.54,3.54,0,0,0-1-.11c-1.19,0-1.79.52-1.79,1.55v1h2.47v2.74H33v9.94Z" transform="translate(-1.19 3.17)"/><path d="M51.77,4.49V7.64h2.08v2.74H51.77v5.8a1.51,1.51,0,0,0,.25,1,1.4,1.4,0,0,0,1,.28,5.6,5.6,0,0,0,1-.07v2.83a7.48,7.48,0,0,1-2.23.33,4.14,4.14,0,0,1-3-1,3.92,3.92,0,0,1-1-2.91v-6.3H46.2V7.64h1.62V4.49Z" transform="translate(-1.19 3.17)"/><path d="M61.43,9a4.34,4.34,0,0,1,6.4-.35,5.56,5.56,0,0,1,1.08,3.67v8H65V12.41a2.18,2.18,0,0,0-.41-1.48,1.73,1.73,0,0,0-1.39-.48,1.88,1.88,0,0,0-1.72.78v9.09h-4v-18h4Z" transform="translate(-1.19 3.17)"/><path d="M79.41,20.55a6.54,6.54,0,0,1-4.73-1.74,6,6,0,0,1-1.8-4.52V14a7.84,7.84,0,0,1,.72-3.44,5.26,5.26,0,0,1,2.1-2.3A6.42,6.42,0,0,1,79,7.41,5.48,5.48,0,0,1,83.2,9.06a6.5,6.5,0,0,1,1.55,4.63v1.53H76.9a2.86,2.86,0,0,0,.93,1.68,2.77,2.77,0,0,0,1.85.61,3.57,3.57,0,0,0,2.93-1.31l1.8,2.13A5,5,0,0,1,82.32,20,7.08,7.08,0,0,1,79.41,20.55ZM79,10.45c-1.15,0-1.84.77-2.06,2.3h4v-.3a1.75,1.75,0,0,0-1.92-2Z" transform="translate(-1.19 3.17)"/><path class="a" d="M110.79,18.21a6.7,6.7,0,0,1-2.78,1.7,12,12,0,0,1-4,.64,7.16,7.16,0,0,1-5.36-2.05,8.29,8.29,0,0,1-2.14-5.7V11.32a10.22,10.22,0,0,1,.89-4.4A6.54,6.54,0,0,1,99.93,4a7.15,7.15,0,0,1,3.84-1,7.59,7.59,0,0,1,5,1.46,6.16,6.16,0,0,1,2,4.35h-4a3.19,3.19,0,0,0-.91-2,2.93,2.93,0,0,0-2-.61,2.67,2.67,0,0,0-2.39,1.31,6.93,6.93,0,0,0-.86,3.75v1a6.9,6.9,0,0,0,.87,3.84,3.11,3.11,0,0,0,2.75,1.28,3.48,3.48,0,0,0,2.39-.71V14h-2.86V11.2h7Z" transform="translate(-1.19 3.17)"/><path class="a" d="M121.68,14.29h-2.23v6h-4.11V3.26h6.71A7.56,7.56,0,0,1,126.8,4.6a4.57,4.57,0,0,1,1.71,3.81,5.53,5.53,0,0,1-.72,2.95,5.14,5.14,0,0,1-2.26,1.9l3.56,6.88v.18h-4.4Zm-2.23-3.17h2.6a2.29,2.29,0,0,0,1.76-.62,2.35,2.35,0,0,0,.6-1.72,2.41,2.41,0,0,0-.6-1.73,2.32,2.32,0,0,0-1.76-.63h-2.6Z" transform="translate(-1.19 3.17)"/><path class="a" d="M137.54,20.32h-4.11V3.26h4.11Z" transform="translate(-1.19 3.17)"/><path class="a" d="M142.56,20.32V3.26h5.49a8.14,8.14,0,0,1,4.07,1,7.29,7.29,0,0,1,2.82,2.9,8.8,8.8,0,0,1,1,4.19v.78a8.74,8.74,0,0,1-1,4.2,7.24,7.24,0,0,1-2.79,2.91,7.93,7.93,0,0,1-4,1.06Zm4.11-13.89V17.16h1.43a3.21,3.21,0,0,0,2.72-1.26,6.2,6.2,0,0,0,1-3.75v-.74a6.13,6.13,0,0,0-1-3.72,3.27,3.27,0,0,0-2.77-1.26Z" transform="translate(-1.19 3.17)"/><text x="-1.19" y="3.17"/>
</svg>